<?xml version="1.0" standalone="no"?>
<!DOCTYPE svg PUBLIC "-//W3C//DTD SVG 20010904//EN"
 "http://www.w3.org/TR/2001/REC-SVG-20010904/DTD/svg10.dtd">
<svg version="1.0" xmlns="http://www.w3.org/2000/svg"
 width="700.000000pt" height="700.000000pt" viewBox="0 0 700.000000 700.000000"
 preserveAspectRatio="xMidYMid meet">
<metadata>
Created by potrace 1.14, written by Peter Selinger 2001-2017
</metadata>
<g transform="translate(0.000000,700.000000) scale(0.100000,-0.100000)"
fill="#000000" stroke="none">
<path d="M3269 6775 c-2 -1 -35 -5 -74 -9 -368 -30 -765 -141 -1125 -313 -410
-197 -814 -513 -1090 -853 -25 -30 -47 -57 -50 -60 -17 -17 -106 -139 -157
-215 -303 -454 -490 -980 -540 -1520 -16 -164 -8 -578 12 -715 2 -14 7 -47 10
-75 4 -27 8 -51 9 -52 1 -1 42 18 92 43 65 33 120 51 202 68 118 25 128 28
125 36 0 3 -4 39 -8 80 -3 41 -8 91 -11 111 -12 90 -5 408 11 519 52 366 125
613 264 905 205 429 539 822 931 1096 272 190 603 342 925 424 149 38 257 57
465 82 65 7 405 7 475 -1 33 -4 80 -9 105 -12 635 -72 1243 -374 1699 -842 79
-82 122 -131 234 -272 73 -91 193 -285 264 -425 78 -154 190 -446 207 -539 1
-6 5 -20 9 -31 3 -11 8 -31 11 -45 3 -14 8 -36 11 -50 12 -51 34 -177 41 -225
3 -27 8 -58 10 -68 20 -109 20 -548 -1 -655 -2 -11 -6 -42 -10 -69 -49 -366
-195 -771 -398 -1098 -435 -704 -1168 -1188 -1987 -1314 -136 -21 -210 -24
-210 -10 -1 8 -1 399 -1 869 0 589 -3 856 -10 861 -6 3 -29 2 -51 -3 -36 -8
-324 -6 -358 3 -13 4 -15 -114 -15 -1011 l0 -1015 27 -45 c57 -98 109 -115
323 -106 88 3 171 8 185 10 14 3 54 7 89 11 35 3 67 7 70 9 3 2 31 7 61 10 82
10 269 53 400 93 351 106 654 254 956 466 61 42 119 85 130 95 11 9 44 37 74
62 152 123 335 311 468 479 81 100 219 301 267 387 194 345 316 670 384 1024
27 138 29 150 37 228 3 37 10 90 14 117 8 53 6 576 -3 610 -2 11 -8 47 -11 80
-6 53 -27 182 -41 255 -75 387 -256 817 -488 1165 -33 50 -70 102 -81 117 -12
14 -32 41 -46 59 -335 445 -843 831 -1371 1042 -133 53 -347 123 -435 142 -11
2 -62 13 -114 25 -97 21 -176 34 -265 45 -27 3 -70 8 -95 11 -48 7 -546 15
-551 9z"/>
<path d="M2898 5896 c-63 -17 -111 -56 -139 -113 -23 -47 -24 -52 -24 -398 l0
-350 -90 -5 c-101 -7 -136 -21 -182 -74 -56 -63 -56 -69 -56 -596 0 -444 3
-560 19 -630 3 -14 7 -34 9 -46 48 -225 214 -475 418 -628 111 -82 309 -170
427 -190 92 -15 118 -18 194 -20 203 -7 414 49 592 156 38 23 71 44 74 47 3 3
27 24 55 46 217 175 369 460 393 740 4 44 7 290 6 546 0 523 -1 528 -71 590
-53 46 -93 59 -177 59 -50 0 -75 4 -78 13 -2 6 -4 158 -3 337 2 349 -2 383
-49 444 -28 38 -100 77 -149 82 -52 5 -129 -22 -166 -58 -71 -69 -73 -78 -72
-469 l0 -349 -329 0 -330 0 0 353 c0 319 -2 356 -19 392 -26 57 -77 103 -135
120 -58 17 -57 17 -118 1z"/>
<path d="M760 2669 c-212 -28 -241 -45 -345 -204 -109 -166 -162 -311 -189
-515 -12 -88 -7 -268 10 -340 3 -14 8 -36 10 -50 3 -14 16 -60 30 -104 111
-342 374 -621 706 -752 200 -79 441 -101 643 -59 127 27 156 49 250 189 197
297 248 680 135 1015 -77 228 -248 465 -433 600 -227 166 -554 254 -817 220z"/>
</g>
</svg>
